<?xml version="1.0" encoding="utf-8"?>
<!-- Generator: Adobe Illustrator 16.0.0, SVG Export Plug-In . SVG Version: 6.00 Build 0)  -->
<!DOCTYPE svg PUBLIC "-//W3C//DTD SVG 1.1//EN" "http://www.w3.org/Graphics/SVG/1.1/DTD/svg11.dtd">
<svg version="1.1" id="Layer_1" xmlns="http://www.w3.org/2000/svg" xmlns:xlink="http://www.w3.org/1999/xlink" x="0px" y="0px"
	 width="76px" height="50px" viewBox="0 0 76 50" enable-background="new 0 0 76 50" xml:space="preserve">
<g>
	<path fill="#FFFFFF" d="M76,47c0,1.658-1.342,3-3,3H3c-1.656,0-3-1.342-3-3V3c0-1.656,1.344-3,3-3h70c1.658,0,3,1.344,3,3V47z"/>
	<path fill="#283573" d="M30.892,15.796l-7.737,18.458h-5.047l-3.805-14.729c-0.231-0.908-0.433-1.24-1.137-1.623
		c-1.147-0.622-3.042-1.206-4.709-1.568l0.113-0.537h8.124c1.035,0,1.967,0.69,2.202,1.883l2.01,10.681l4.967-12.563H30.892z
		 M50.668,28.229c0.018-4.872-6.738-5.141-6.691-7.316c0.016-0.665,0.645-1.366,2.023-1.547c0.686-0.09,2.57-0.159,4.711,0.826
		l0.834-3.913c-1.146-0.418-2.625-0.819-4.463-0.819c-4.719,0-8.041,2.51-8.068,6.1c-0.032,2.66,2.371,4.138,4.182,5.023
		c1.859,0.904,2.482,1.486,2.475,2.295c-0.014,1.238-1.484,1.783-2.857,1.805c-2.398,0.039-3.793-0.645-4.903-1.164l-0.865,4.043
		c1.113,0.512,3.172,0.959,5.311,0.982C47.367,34.543,50.65,32.062,50.668,28.229 M63.127,34.254h4.416l-3.852-18.458h-4.078
		c-0.914,0-1.689,0.533-2.033,1.354l-7.162,17.104h5.012l0.996-2.756h6.123L63.127,34.254z M57.801,27.715l2.514-6.933l1.443,6.933
		H57.801z M37.712,15.796l-3.947,18.458h-4.773l3.947-18.458H37.712z"/>
</g>
</svg>
